<svg xmlns="http://www.w3.org/2000/svg" viewBox="0 0 200 200" role="img" aria-label="Brick AI logo mark compact on black">
  <!-- Black rounded square background -->
  <rect width="200" height="200" rx="44" fill="#000"/>
  <!-- White compact logo mark, scaled + centered -->
  <g transform="translate(28, 28) scale(0.14453125)">
    <path
      fill="#FFFFFF"
      fill-rule="evenodd"
      d="
        M180 264 H348 L512 112 C540 88 570 80 612 80 H824
        C866 80 888 102 888 144 V256 C888 324 838 368 760 368
        H644 V480 H824 C866 480 888 502 888 544 V632
        C888 712 834 760 748 760 H704 L584 910
        C560 940 526 952 480 952 H180 C152 952 136 936 136 908
        V308 C136 280 152 264 180 264 Z
        M420 272 H736 C792 272 816 250 816 204 V152 H628
        C596 152 574 160 548 184 L420 272 Z
        M208 368 V480 H572 V368 H208 Z
        M208 560 V672 H440 V560 H208 Z
        M508 560 V672 H728 C784 672 816 648 816 604 V560 H508 Z
        M208 760 V848 H470 C504 848 526 840 550 810 L590 760 H208 Z
      "
    />
  </g>
</svg>
